<?xml version="1.0" encoding="utf-8"?>
<!-- Svg Vector Icons : http://www.onlinewebfonts.com/icon -->
<!DOCTYPE svg PUBLIC "-//W3C//DTD SVG 1.1//EN" "http://www.w3.org/Graphics/SVG/1.1/DTD/svg11.dtd">
<svg version="1.1" xmlns="http://www.w3.org/2000/svg" xmlns:xlink="http://www.w3.org/1999/xlink" x="0px" y="0px" viewBox="0 0 1000 1000" enable-background="new 0 0 1000 1000" xml:space="preserve">
<metadata> Svg Vector Icons : http://www.onlinewebfonts.com/icon </metadata>
<g><g><path d="M569.9,796.6V692.8c0-5.1-1.7-9.4-5.2-12.8c-3.5-3.5-7.6-5.2-12.3-5.2H447.6c-4.7,0-8.8,1.7-12.3,5.2c-3.5,3.5-5.2,7.7-5.2,12.8v103.8c0,5.1,1.7,9.4,5.2,12.8c3.5,3.5,7.6,5.2,12.3,5.2h104.9c4.7,0,8.8-1.7,12.3-5.2C568.2,806,569.9,801.7,569.9,796.6z M568.8,592.3l9.8-250.7c0-4.4-1.8-7.8-5.5-10.4c-4.7-4-9.1-6-13.1-6H439.9c-4,0-8.4,2-13.1,6c-3.6,2.5-5.5,6.4-5.5,11.5l9.3,249.6c0,3.6,1.8,6.6,5.5,9c3.6,2.4,8,3.6,13.1,3.5h101.1c5.1,0,9.4-1.2,12.8-3.5C566.6,599,568.5,596,568.8,592.3L568.8,592.3z M561.2,82.1l419.5,769.1c12.7,22.9,12.4,45.9-1.1,68.8c-6.2,10.6-14.7,18.9-25.4,25.1s-22.3,9.3-34.7,9.3H80.5c-12.4,0-23.9-3.1-34.7-9.3C35,939,26.6,930.6,20.4,920.1c-13.5-22.9-13.8-45.9-1.1-68.8L438.8,82.1c6.2-11.3,14.7-20.2,25.7-26.8c10.9-6.6,22.8-9.8,35.5-9.8c12.7,0,24.6,3.3,35.5,9.8C546.4,61.9,555,70.8,561.2,82.1z"/></g></g>
</svg>